<svg xmlns="http://www.w3.org/2000/svg" xmlns:xlink="http://www.w3.org/1999/xlink" fill="none" version="1.1" width="24" height="24" viewBox="0 0 24 24"><g transform="matrix(-1,0,0,-1,48,48)"><g></g><g><path d="M37.5864,24.419676L45.4136,28.85737C45.8953,29.1314,46.2952,29.5249,46.5736,29.99852C46.852000000000004,30.47215,46.998999999999995,31.00931,47,31.55631L47,40.443799999999996C46.9994,40.9911,46.852599999999995,41.5287,46.574200000000005,42.002700000000004C46.2958,42.4767,45.8955,42.870599999999996,45.4136,43.144800000000004L37.5864,47.5824C37.1043,47.8565,36.557,48.0005,36,48C35.443,47.9983,34.896209999999996,47.8536,34.41366,47.5804L26.58637,43.142700000000005C26.10486,42.8681,25.704985,42.474199999999996,25.426645,42.0002C25.148295,41.526399999999995,25.00119892,40.989000000000004,25,40.4418L25,31.55631C25.000932669,31.00931,25.14795,30.47215,25.426335,29.99852C25.70473,29.5249,26.10473,29.1314,26.58637,28.85737L34.41366,24.419676C34.89554,24.144787,35.4428,24,36,24C36.5572,24,37.1045,24.144787,37.5864,24.419676ZM43.920500000000004,40.4935C44.118700000000004,40.156400000000005,44.223,39.774100000000004,44.223299999999995,39.3848L44.223299999999995,32.61529C44.2224,32.22562,44.1177,31.84298,43.9197,31.50538C43.721599999999995,31.1678,43.437200000000004,30.88702,43.0945,30.69095L37.1287,27.30822C36.7856,27.11347,36.3962,27.01095,36,27.01095C35.6038,27.01095,35.2145,27.11347,34.87123,27.30822L28.89924,30.69095C28.55565,30.885930000000002,28.27041,31.16647,28.07225,31.5043C27.87409,31.84214,27.77002,32.22534,27.77052,32.61529L27.77052,39.3848C27.77038,39.7744,27.87462,40.1572,28.07277,40.4946C28.27091,40.8321,28.55595,41.112300000000005,28.89924,41.3072L34.87123,44.6918C35.2145,44.886399999999995,35.6038,44.988600000000005,36,44.9884C36.3971,44.9893,36.7874,44.8861,37.1308,44.6899L43.0945,41.305099999999996C43.4376,41.1104,43.7224,40.830600000000004,43.920500000000004,40.4935ZM38.878299999999996,40.870999999999995C38.7157,40.7603,38.591499999999996,40.6035,38.5221,40.4216L35.9999,33.75001L33.46959,40.4216C33.40059,40.6034,33.27673,40.7601,33.11463,40.8707C32.952510000000004,40.9815,32.75988,41.040800000000004,32.5625,41.040800000000004C32.44831,41.041399999999996,32.33497,41.0216,32.22799,40.9824C31.987940000000002,40.894,31.79324,40.7158,31.68635,40.4868C31.57946,40.2578,31.56908,39.9966,31.65746,39.76L35.0827,30.6829C35.149699999999996,30.513370000000002,35.2649,30.36629,35.4143,30.259050000000002C35.5638,30.15181,35.7414,30.08889,35.9261,30.07775L36.075900000000004,30.07775C36.260400000000004,30.089019999999998,36.4376,30.15201,36.5867,30.25927C36.7359,30.366509999999998,36.8506,30.51353,36.9173,30.6829L40.3343,39.76C40.4227,39.9966,40.4123,40.2578,40.3055,40.4868C40.1986,40.7158,40.0039,40.894,39.7638,40.9824C39.6575,41.0214,39.5449,41.0413,39.4313,41.040800000000004C39.2337,41.0409,39.0407,40.9816,38.878299999999996,40.870999999999995Z" fill-rule="evenodd" fill="#D7DAE0" fill-opacity="1"/></g></g></svg>