<svg xmlns="http://www.w3.org/2000/svg" xmlns:xlink="http://www.w3.org/1999/xlink" fill="none" version="1.1" width="24" height="24" viewBox="0 0 24 24"><g><g></g><g><path d="M13.5864,0.419676L21.4136,4.85737C21.8953,5.1314,22.2952,5.5249,22.5736,5.99852C22.852,6.47215,22.999,7.00931,23,7.55631L23,16.4438C22.9994,16.9911,22.8526,17.5287,22.5742,18.0027C22.2958,18.4767,21.8955,18.8706,21.4136,19.1448L13.5864,23.5824C13.1043,23.8565,12.557,24.0005,12,24C11.443,23.9983,10.8962,23.8536,10.41366,23.5804L2.58637,19.1427C2.10486,18.8681,1.704985,18.4742,1.426645,18.0002C1.148295,17.5264,1.00119892,16.989,1,16.4418L1,7.55631C1.000932669,7.00931,1.14795,6.47215,1.426335,5.99852C1.70473,5.5249,2.10473,5.1314,2.58637,4.85737L10.41366,0.419676C10.89554,0.144787,11.4428,0,12,0C12.5572,0,13.1045,0.144787,13.5864,0.419676ZM19.9205,16.4935C20.1187,16.1564,20.223,15.7741,20.2233,15.3848L20.2233,8.61529C20.2224,8.22562,20.1177,7.84298,19.9197,7.50538C19.7216,7.1678,19.4372,6.88702,19.0945,6.69095L13.1287,3.30822C12.7856,3.11347,12.3962,3.01095,12,3.01095C11.6038,3.01095,11.2145,3.11347,10.87123,3.30822L4.89924,6.69095C4.55565,6.88593,4.27041,7.16647,4.07225,7.5043C3.87409,7.84214,3.77002,8.22534,3.77052,8.61529L3.77052,15.3848C3.77038,15.7744,3.87462,16.1572,4.07277,16.4946C4.270910000000001,16.8321,4.55595,17.1123,4.89924,17.3072L10.87123,20.6918C11.2145,20.8864,11.6038,20.9886,12,20.9884C12.3971,20.9893,12.7874,20.8861,13.1308,20.6899L19.0945,17.3051C19.4376,17.1104,19.7224,16.8306,19.9205,16.4935ZM13.1081,6.6829L16.525199999999998,15.76C16.613500000000002,15.9966,16.603099999999998,16.2578,16.496299999999998,16.4868C16.389400000000002,16.7158,16.194699999999997,16.894,15.9546,16.9823C15.8484,17.0214,15.7357,17.0413,15.6221,17.0408C15.4245,17.0409,15.2315,16.9816,15.0691,16.871C14.9066,16.7603,14.7824,16.6035,14.713,16.4216L14.1589,14.9551L10.21451,14.9551L9.66042,16.4216C9.59142,16.6034,9.46757,16.7601,9.30546,16.8707C9.14335,16.9815,8.950700000000001,17.0408,8.75332,17.0408C8.639140000000001,17.0414,8.5258,17.0216,8.41881,16.9823C8.17877,16.894,7.98406,16.7158,7.87717,16.4868C7.77029,16.2578,7.75991,15.9966,7.84829,15.76L11.2735,6.6829C11.3406,6.51337,11.4557,6.36629,11.6051,6.25905C11.7546,6.1518,11.9322,6.08889,12.117,6.07775L12.2667,6.07775C12.4512,6.08902,12.6285,6.15201,12.7776,6.25927C12.9268,6.36651,13.0414,6.51353,13.1081,6.6829ZM12.1826,9.71667L10.92252,13.055L13.4427,13.055L12.1826,9.71667Z" fill-rule="evenodd" fill="#D7DAE0" fill-opacity="1"/></g></g></svg>